# xmcd
#
# Track frame offsets:
#	150
#	13650
#	29882
#	47340
#	61485
#	77455
#	93237
#	105677
#	121050
#	139982
#	153800
#	168202
#	183890
#	199380
#	215172
#
# Disc length: 3090 seconds
#
# Revision: 2
# Processed by: cddbd v1.5.2PL0 Copyright (c) Steve Scherf et al.
# Submitted via: audiograbber 1.83.01
#
DISCID=c60c100f
DTITLE=Various Artist - MM6089
DYEAR=1900
DGENRE=Karaoke
TTITLE0=McEntire, Reba And Vince Gill - Oklahoma Swing
TTITLE1=Twister Alley - Dance
TTITLE2=The Bellamy Brothers - Rip Off The Knob
TTITLE3=Williams Jr, Hank - Born To Boogie
TTITLE4=The Bellamy Brothers - Cowboy Beat
TTITLE5=Seals, Dan - Bop
TTITLE6=Jones, George - High Tech Redneck
TTITLE7=Anderson, John - Swingin'
TTITLE8=Strait, George - You Look So Good In Love
TTITLE9=Travis, Randy - Cowboy Boogie
TTITLE10=Chesnutt, Mark - It Sure Is Monday
TTITLE11=Murray, Anne - Could I Have This Dance
TTITLE12=Shenandoah - Janie Baker's Love Song
TTITLE13=The Oak Ridge Boys - Elvira
TTITLE14=The Kentucky Headhunters - Walk Softly On This Heart Of Mine
EXTD=
EXTT0=
EXTT1=
EXTT2=
EXTT3=
EXTT4=
EXTT5=
EXTT6=
EXTT7=
EXTT8=
EXTT9=
EXTT10=
EXTT11=
EXTT12=
EXTT13=
EXTT14=
PLAYORDER=
